<svg width="168" height="168" viewBox="0 0 168 168" fill="none" xmlns="http://www.w3.org/2000/svg">
<g filter="url(#filter0_dd_105_1547)">
<rect x="15" y="15" width="138" height="138" rx="20" fill="#67DF87"/>
</g>
<path d="M113.7 76.0757L105.125 71.1196L94.79 83.8113L105.321 96.7653L113.696 91.928C117.193 89.9111 119.112 87.0867 119.112 83.9957C119.112 80.9048 117.197 78.0967 113.7 76.0757ZM58.1374 122.333L89.5018 83.8154L58.5351 45.7157C58.4367 45.7116 58.3342 45.6665 58.2358 45.6665C53.4682 45.6665 50.2666 49.5404 50.2666 55.3124V112.704C50.2748 118.422 53.4354 122.276 58.1374 122.333ZM101.521 69.0535L66.2337 48.6714L92.15 80.5605L101.521 69.0535ZM92.1459 87.058L65.545 119.734L101.722 98.8396L92.1459 87.058Z" fill="#333333"/>
<defs>
<filter id="filter0_dd_105_1547" x="0" y="0" width="168" height="168" filterUnits="userSpaceOnUse" color-interpolation-filters="sRGB">
<feFlood flood-opacity="0" result="BackgroundImageFix"/>
<feColorMatrix in="SourceAlpha" type="matrix" values="0 0 0 0 0 0 0 0 0 0 0 0 0 0 0 0 0 0 127 0" result="hardAlpha"/>
<feOffset dx="5" dy="5"/>
<feGaussianBlur stdDeviation="5"/>
<feComposite in2="hardAlpha" operator="out"/>
<feColorMatrix type="matrix" values="0 0 0 0 0.159271 0 0 0 0 0.579167 0 0 0 0 0.271484 0 0 0 1 0"/>
<feBlend mode="normal" in2="BackgroundImageFix" result="effect1_dropShadow_105_1547"/>
<feColorMatrix in="SourceAlpha" type="matrix" values="0 0 0 0 0 0 0 0 0 0 0 0 0 0 0 0 0 0 127 0" result="hardAlpha"/>
<feOffset dx="-5" dy="-5"/>
<feGaussianBlur stdDeviation="5"/>
<feComposite in2="hardAlpha" operator="out"/>
<feColorMatrix type="matrix" values="0 0 0 0 1 0 0 0 0 1 0 0 0 0 1 0 0 0 0.25 0"/>
<feBlend mode="normal" in2="effect1_dropShadow_105_1547" result="effect2_dropShadow_105_1547"/>
<feBlend mode="normal" in="SourceGraphic" in2="effect2_dropShadow_105_1547" result="shape"/>
</filter>
</defs>
</svg>
