<?xml version="1.0" standalone="no"?>
<!DOCTYPE svg PUBLIC "-//W3C//DTD SVG 20010904//EN"
 "http://www.w3.org/TR/2001/REC-SVG-20010904/DTD/svg10.dtd">
<svg version="1.0" xmlns="http://www.w3.org/2000/svg"
 width="512.000000pt" height="512.000000pt" viewBox="0 0 512.000000 512.000000"
 preserveAspectRatio="xMidYMid meet">

<g transform="translate(0.000000,512.000000) scale(0.100000,-0.100000)"
fill="#000000" stroke="none">
<path d="M0 2560 l0 -2560 2560 0 2560 0 0 2560 0 2560 -2560 0 -2560 0 0
-2560z m1321 2063 c68 -34 189 -153 256 -253 54 -81 160 -274 211 -382 l31
-68 1413 -2 1413 -3 55 -26 c64 -30 112 -74 143 -133 l22 -41 0 -1065 0 -1065
-27 -45 c-36 -62 -73 -94 -143 -127 l-60 -28 -537 -3 c-594 -3 -591 -3 -623
58 -21 41 -13 89 21 121 l26 24 543 5 543 5 26 24 26 24 0 939 c0 516 -2 938
-5 938 -3 0 -333 -257 -733 -571 -514 -404 -746 -581 -792 -603 -54 -25 -77
-30 -140 -30 -131 -1 -136 3 -749 484 -334 262 -557 443 -562 458 l-9 24 -43
-25 c-23 -13 -75 -43 -115 -66 -85 -50 -117 -92 -133 -175 -10 -58 -7 -111 13
-176 20 -64 510 -901 555 -946 65 -67 134 -98 218 -99 69 0 71 1 208 79 76 44
162 85 190 93 110 28 237 7 335 -56 117 -75 302 -314 435 -562 106 -196 143
-381 98 -485 -29 -66 -66 -101 -172 -162 -144 -83 -305 -136 -488 -163 -130
-18 -361 -6 -489 25 -210 52 -409 150 -597 291 -157 118 -354 333 -482 525
-86 129 -604 1029 -659 1145 -217 456 -264 946 -129 1334 69 199 156 339 304
494 113 117 173 165 296 234 112 63 107 61 186 62 51 1 76 -5 120 -26z"/>
<path d="M1107 4396 c-305 -181 -499 -477 -547 -834 -17 -124 -8 -356 20 -487
32 -151 103 -356 173 -495 55 -109 278 -498 542 -945 239 -405 533 -679 872
-814 137 -56 272 -81 426 -81 204 0 379 45 554 142 89 49 93 53 93 85 0 98
-88 291 -228 503 -142 215 -276 326 -368 304 -16 -3 -93 -42 -171 -86 -79 -44
-164 -86 -189 -94 -150 -45 -358 19 -489 152 -58 59 -141 195 -537 888 -91
159 -115 280 -84 426 35 165 95 236 299 353 75 43 147 91 161 107 47 57 44
166 -10 310 -31 81 -151 311 -211 404 -51 79 -167 200 -199 208 -14 4 -49 -12
-107 -46z"/>
<path d="M1880 3653 c-1 -74 -15 -134 -46 -197 -14 -27 -21 -52 -17 -56 34
-29 1038 -814 1075 -840 54 -38 112 -44 163 -17 25 13 1450 1128 1479 1158 6
5 -483 9 -1322 9 l-1332 0 0 -57z"/>
</g>
</svg>
