<?xml version="1.0" standalone="no"?>
<!DOCTYPE svg PUBLIC "-//W3C//DTD SVG 20010904//EN"
 "http://www.w3.org/TR/2001/REC-SVG-20010904/DTD/svg10.dtd">
<svg version="1.0" xmlns="http://www.w3.org/2000/svg"
 width="512.000000pt" height="512.000000pt" viewBox="0 0 512.000000 512.000000"
 preserveAspectRatio="xMidYMid meet">

<g transform="translate(0.000000,512.000000) scale(0.100000,-0.100000)"
fill="#000000" stroke="none">
<path d="M690 4479 c-60 -27 -107 -74 -136 -134 -22 -46 -24 -63 -24 -207 l0
-156 -167 -4 c-150 -3 -172 -6 -209 -25 -53 -28 -99 -74 -127 -127 l-22 -41
-3 -1077 c-2 -1068 -2 -1077 18 -1132 15 -39 35 -68 72 -100 65 -59 121 -76
254 -76 l103 0 3 -366 3 -366 28 -24 c20 -17 40 -24 68 -24 40 0 145 76 940
680 l132 100 1284 0 1284 0 157 -118 c86 -65 167 -124 179 -130 28 -15 55 -15
88 0 53 24 55 37 55 422 l0 354 133 4 c128 3 136 4 183 33 53 33 107 104 124
163 6 24 10 403 10 1088 0 1163 3 1112 -65 1191 -19 23 -58 53 -87 67 l-52 26
-2090 0 c-2081 0 -2091 -1 -2136 -21z m4210 -199 c20 -20 20 -33 20 -1062 -1
-914 -3 -1045 -16 -1063 -14 -18 -30 -20 -195 -25 l-181 -5 -29 -33 -29 -32 0
-310 0 -311 -183 139 c-609 462 -717 541 -749 547 -18 3 -293 5 -611 3 l-579
-3 -29 -33 c-40 -44 -40 -93 0 -133 l29 -29 572 0 571 0 214 -162 214 -163
-1187 -5 c-653 -3 -1188 -6 -1188 -8 -1 -1 -201 -153 -445 -337 l-444 -336 -5
308 c-5 320 -8 341 -50 363 -10 6 -91 10 -185 10 -163 0 -166 0 -190 25 l-25
24 0 1041 0 1041 25 24 c23 24 29 25 164 25 l141 0 2 -832 c3 -775 4 -835 21
-865 31 -57 80 -105 132 -129 50 -24 52 -24 447 -24 l397 0 26 23 c17 14 28
36 32 63 5 36 1 46 -25 75 l-30 34 -387 5 c-368 5 -387 6 -401 24 -12 17 -14
178 -14 1061 0 926 2 1043 16 1063 l15 22 2060 0 c2046 0 2059 0 2079 -20z"/>
<path d="M3746 3964 c-288 -70 -494 -379 -473 -709 23 -354 286 -628 602 -628
97 0 166 18 264 69 l84 45 107 -106 c96 -94 111 -105 143 -105 68 0 125 77 97
132 -7 13 -57 69 -113 125 l-100 102 35 68 c129 245 112 541 -41 760 -145 206
-379 302 -605 247z m280 -220 c207 -98 308 -386 221 -627 -14 -38 -28 -71 -31
-75 -4 -3 -48 35 -99 86 -116 116 -164 132 -221 75 -20 -19 -26 -36 -26 -67 0
-38 6 -47 101 -142 56 -56 99 -107 95 -112 -15 -24 -121 -54 -191 -54 -129 0
-246 69 -324 190 -141 221 -85 555 116 694 108 74 245 86 359 32z"/>
<path d="M1139 3871 l-29 -29 0 -627 0 -627 29 -29 c40 -40 89 -40 133 0 l33
29 3 296 3 296 279 0 c179 0 288 4 303 11 60 27 71 112 21 160 l-26 24 -289 3
-289 3 0 159 0 159 289 3 289 3 26 24 c47 44 44 112 -8 153 -19 16 -55 18
-379 18 l-359 0 -29 -29z"/>
<path d="M2513 3882 c-24 -18 -523 -1184 -523 -1222 0 -33 23 -71 51 -86 61
-31 115 -8 147 63 12 26 48 111 81 188 l58 140 244 3 244 2 78 -185 c85 -199
104 -225 164 -225 48 0 93 45 93 94 0 52 -481 1193 -516 1224 -31 27 -89 29
-121 4z m146 -542 l69 -165 -150 -3 c-83 -1 -153 0 -156 2 -4 4 33 94 136 336
13 32 15 33 23 15 5 -11 40 -94 78 -185z"/>
<path d="M1904 2120 c-65 -27 -84 -112 -35 -161 74 -73 196 0 164 97 -16 49
-84 83 -129 64z"/>
</g>
</svg>
