<?xml version="1.0" standalone="no"?>
<!DOCTYPE svg PUBLIC "-//W3C//DTD SVG 20010904//EN"
 "http://www.w3.org/TR/2001/REC-SVG-20010904/DTD/svg10.dtd">
<svg version="1.0" xmlns="http://www.w3.org/2000/svg"
 width="612.000000pt" height="408.000000pt" viewBox="0 0 612.000000 408.000000"
 preserveAspectRatio="xMidYMid meet">

<g transform="translate(0.000000,408.000000) scale(0.100000,-0.100000)"
fill="#000000" stroke="none">
<path d="M1183 3614 c4 -5 28 -7 52 -5 41 2 45 1 43 -20 -2 -12 3 -24 12 -26
13 -4 13 -3 0 6 -13 10 -13 12 0 21 18 12 43 13 36 2 -2 -4 12 -8 32 -9 20 0
60 -3 87 -7 45 -5 44 -4 -14 9 -36 8 -67 17 -69 20 -3 3 51 4 119 4 86 -1 112
-4 85 -9 -21 -4 -48 -6 -60 -3 -20 3 -20 3 -1 -6 11 -5 35 -7 54 -4 22 4 36 1
43 -8 8 -11 9 -10 4 4 -5 15 -2 17 17 11 12 -3 22 -7 23 -8 1 0 6 -10 13 -21
11 -18 11 -18 5 5 -3 14 -10 30 -16 35 -5 6 -104 11 -241 13 -127 2 -228 0
-224 -4z"/>
<path d="M1528 3553 c7 -3 16 -2 19 1 4 3 -2 6 -13 5 -11 0 -14 -3 -6 -6z"/>
<path d="M1892 3035 c0 -16 2 -22 5 -12 2 9 2 23 0 30 -3 6 -5 -1 -5 -18z"/>
<path d="M981 3004 c0 -11 3 -14 6 -6 3 7 2 16 -1 19 -3 4 -6 -2 -5 -13z"/>
<path d="M1902 2960 c0 -19 2 -27 5 -17 2 9 2 25 0 35 -3 9 -5 1 -5 -18z"/>
<path d="M1560 2956 c0 -2 8 -10 18 -17 15 -13 16 -12 3 4 -13 16 -21 21 -21
13z"/>
<path d="M1597 2905 c-4 -8 -3 -15 2 -15 12 0 7 -36 -8 -54 -8 -9 -9 -16 -3
-16 20 0 33 28 27 61 -7 40 -11 45 -18 24z"/>
<path d="M1912 2890 c0 -19 2 -27 5 -17 2 9 2 25 0 35 -3 9 -5 1 -5 -18z"/>
<path d="M1922 2815 c0 -16 2 -22 5 -12 2 9 2 23 0 30 -3 6 -5 -1 -5 -18z"/>
<path d="M2063 2823 c-7 -5 -19 -25 -28 -46 -25 -59 2 -86 142 -142 62 -25
115 -45 117 -45 8 0 59 140 54 146 -4 3 -48 24 -100 46 -94 41 -163 56 -185
41z m40 -45 c6 -19 -3 -38 -18 -38 -18 0 -28 17 -21 35 7 18 33 20 39 3z m118
-20 c1 -7 0 -19 -1 -27 -1 -12 3 -11 24 2 38 25 45 20 11 -8 -24 -20 -26 -25
-12 -25 14 0 18 -6 15 -27 -2 -20 -9 -28 -23 -28 -16 0 -20 6 -18 28 2 26 1
27 -20 12 -12 -8 -28 -15 -37 -15 -8 0 0 10 18 21 31 20 40 30 25 28 -22 -4
-33 3 -33 19 0 10 3 22 7 25 11 12 43 8 44 -5z"/>
<path d="M2197 2753 c-4 -3 -7 -11 -7 -17 0 -6 5 -5 12 2 6 6 9 14 7 17 -3 3
-9 2 -12 -2z"/>
<path d="M2230 2669 c0 -5 5 -7 10 -4 6 3 10 8 10 11 0 2 -4 4 -10 4 -5 0 -10
-5 -10 -11z"/>
<path d="M1025 2735 c6 -72 13 -95 25 -95 18 0 20 21 9 84 -7 40 -16 67 -26
70 -12 5 -14 -4 -8 -59z"/>
<path d="M1932 2745 c0 -11 4 -33 8 -50 7 -27 8 -27 8 -5 0 14 -4 36 -8 50 -6
20 -8 21 -8 5z"/>
<path d="M1952 2620 c0 -14 2 -19 5 -12 2 6 2 18 0 25 -3 6 -5 1 -5 -13z"/>
<path d="M1048 2581 c-2 -17 0 -27 5 -24 5 3 8 -13 6 -40 -2 -25 -1 -43 4 -40
4 2 7 -7 7 -20 0 -38 12 -87 21 -87 17 0 17 39 1 134 -17 100 -36 132 -44 77z"/>
<path d="M1962 2555 c0 -16 2 -22 5 -12 2 9 2 23 0 30 -3 6 -5 -1 -5 -18z"/>
<path d="M1972 2485 c0 -16 2 -22 5 -12 2 9 2 23 0 30 -3 6 -5 -1 -5 -18z"/>
<path d="M1487 2453 c-45 -51 -60 -193 -27 -268 7 -16 12 -33 12 -38 -3 -9 46
-87 54 -87 4 0 1 7 -6 15 -10 12 -10 15 1 15 11 0 11 2 -1 10 -12 7 -12 12 -3
21 10 10 24 10 60 1 76 -18 120 -22 258 -27 72 -2 146 -8 165 -12 19 -4 71 -5
115 -2 44 3 75 6 69 7 -7 1 -14 9 -17 17 -5 11 -2 12 17 4 18 -8 31 -7 55 5
17 9 36 14 41 11 6 -3 15 -3 21 1 8 4 7 9 -2 15 -11 7 -10 9 4 9 16 0 18 8 15
71 l-2 71 -34 -6 c-19 -3 -32 -3 -29 1 8 7 -11 25 -43 40 -42 21 -102 32 -162
30 -31 -1 -54 1 -51 6 2 4 -1 7 -6 7 -6 0 -11 -5 -11 -11 0 -8 -4 -8 -12 -1
-7 5 -57 12 -111 14 -56 3 -93 2 -85 -3 7 -5 8 -9 3 -9 -6 0 -15 4 -20 9 -6 5
-32 11 -60 14 -27 3 -72 12 -100 21 -103 32 -94 33 -88 -15 4 -28 3 -40 -5
-36 -5 4 -8 16 -5 26 3 10 -1 29 -7 41 -7 12 -8 20 -2 16 5 -3 12 3 15 14 6
24 4 25 -16 3z m-10 -75 c-3 -8 -6 -5 -6 6 -1 11 2 17 5 13 3 -3 4 -12 1 -19z
m213 -18 c-8 -5 -22 -9 -30 -9 -10 0 -8 3 5 9 27 12 43 12 25 0z m183 -7 c-7
-2 -19 -2 -25 0 -7 3 -2 5 12 5 14 0 19 -2 13 -5z m52 -3 c-3 -5 -14 -10 -23
-9 -14 0 -13 2 3 9 27 11 27 11 20 0z m-138 -16 c-3 -3 -12 -4 -19 -1 -8 3 -5
6 6 6 11 1 17 -2 13 -5z m366 -1 c-7 -2 -19 -2 -25 0 -7 3 -2 5 12 5 14 0 19
-2 13 -5z m130 -70 c-7 -2 -21 -2 -30 0 -10 3 -4 5 12 5 17 0 24 -2 18 -5z
m-804 -63 c0 -10 -3 -8 -9 5 -12 27 -12 43 0 25 5 -8 9 -22 9 -30z m18 8 c-3
-7 -5 -2 -5 12 0 14 2 19 5 13 2 -7 2 -19 0 -25z m3 -38 c0 -5 -4 -10 -10 -10
-5 0 -10 5 -10 10 0 6 5 10 10 10 6 0 10 -4 10 -10z m40 -13 c10 -4 8 -6 -7
-6 -13 -1 -23 -6 -23 -13 0 -6 -2 -9 -5 -7 -2 3 -2 15 2 28 3 12 9 18 12 13 3
-5 13 -12 21 -15z m145 -12 c-33 -8 -67 -14 -75 -13 -27 0 74 26 105 26 18 0
6 -5 -30 -13z m132 9 c-3 -3 -12 -4 -19 -1 -8 3 -5 6 6 6 11 1 17 -2 13 -5z
m96 -1 c-7 -2 -19 -2 -25 0 -7 3 -2 5 12 5 14 0 19 -2 13 -5z m-113 -19 c0 -2
-9 -4 -20 -4 -11 0 -20 4 -20 9 0 5 9 7 20 4 11 -3 20 -7 20 -9z m40 6 c0 -5
-5 -10 -11 -10 -5 0 -7 5 -4 10 3 6 8 10 11 10 2 0 4 -4 4 -10z m380 6 c0 -2
-9 -6 -20 -9 -11 -3 -18 -1 -14 4 5 9 34 13 34 5z m-513 -22 c-3 -3 -12 -4
-19 -1 -8 3 -5 6 6 6 11 1 17 -2 13 -5z m120 -10 c-3 -3 -12 -4 -19 -1 -8 3
-5 6 6 6 11 1 17 -2 13 -5z m61 -1 c-10 -2 -26 -2 -35 0 -10 3 -2 5 17 5 19 0
27 -2 18 -5z"/>
<path d="M1982 2425 c0 -16 2 -22 5 -12 2 9 2 23 0 30 -3 6 -5 -1 -5 -18z"/>
<path d="M2574 2198 c-12 -14 -14 -19 -4 -13 8 4 6 -2 -5 -13 -44 -46 -45 -50
-20 -48 18 1 21 4 12 14 -8 10 -5 14 12 19 13 3 21 12 19 22 -1 9 1 22 5 29
13 19 2 14 -19 -10z"/>
<path d="M2613 2193 c9 -2 23 -2 30 0 6 3 -1 5 -18 5 -16 0 -22 -2 -12 -5z"/>
<path d="M2648 2133 c6 -2 18 -2 25 0 6 3 1 5 -13 5 -14 0 -19 -2 -12 -5z"/>
<path d="M3856 2069 c-15 -12 -31 -32 -36 -44 -6 -16 -20 -24 -47 -28 -52 -9
-109 -50 -133 -97 -24 -47 -26 -119 -5 -160 19 -37 29 -39 23 -5 -4 21 2 29
39 51 24 14 60 40 80 57 34 30 37 31 47 13 6 -11 23 -33 37 -50 26 -29 28 -30
54 -16 25 13 28 13 41 -5 21 -28 17 -53 -11 -81 -23 -23 -25 -31 -25 -130 l0
-105 29 20 c31 23 46 27 36 11 -12 -19 -66 -41 -85 -35 -10 3 -29 23 -41 43
-12 21 -24 31 -26 25 -11 -32 -95 -5 -119 38 -13 23 -13 23 -14 -14 0 -26 -14
-61 -45 -115 -24 -42 -56 -103 -70 -134 l-25 -58 74 0 c66 0 74 2 85 23 l11
22 -6 -22 c-5 -21 -2 -23 39 -23 51 0 62 -10 71 -62 4 -21 9 -38 11 -38 3 0
27 12 54 27 l48 27 144 -27 c79 -15 147 -27 150 -27 15 0 -11 83 -36 115 -15
20 -25 38 -23 40 4 5 86 -97 93 -117 4 -9 22 -12 58 -11 l52 1 -52 -7 c-46 -6
-85 -21 -55 -21 39 0 68 -80 40 -108 -16 -16 -53 -15 -70 1 -36 35 -181 53
-199 25 -8 -13 -82 -13 -87 0 -2 7 -8 9 -13 6 -16 -9 -39 16 -39 43 0 21 -3
23 -22 18 -40 -12 -42 -21 -23 -114 l19 -91 131 0 c121 0 135 2 198 28 58 25
65 31 52 42 -8 7 -13 15 -11 18 3 2 12 -3 21 -12 12 -11 27 -14 53 -10 21 3
58 -1 87 -10 45 -14 51 -14 68 2 31 27 18 113 -28 199 -53 97 -175 269 -239
335 -52 55 -55 57 -112 60 l-59 3 -8 45 c-42 247 -46 283 -30 313 47 92 -70
189 -151 126z m164 -555 c0 -30 -50 -84 -77 -83 -15 0 -15 1 3 9 27 11 64 57
64 81 0 11 2 19 5 19 3 0 5 -12 5 -26z m-110 -85 c10 -6 5 -7 -15 -3 -16 4
-34 11 -40 16 -11 12 31 1 55 -13z m-173 -121 c-3 -7 -5 -2 -5 12 0 14 2 19 5
13 2 -7 2 -19 0 -25z"/>
<path d="M1540 2051 c0 -5 7 -12 16 -15 14 -5 15 -4 4 9 -14 17 -20 19 -20 6z"/>
<path d="M2042 2010 c0 -14 2 -19 5 -12 2 6 2 18 0 25 -3 6 -5 1 -5 -13z"/>
<path d="M2307 1948 c-36 -101 -167 -489 -167 -495 0 -2 -4 -2 -8 1 -5 3 -8
-14 -8 -37 l1 -42 42 3 c32 3 46 -1 63 -18 17 -17 19 -24 10 -30 -7 -4 -10
-17 -7 -29 3 -12 2 -21 -3 -21 -4 0 -10 -15 -12 -33 l-4 -33 55 2 c35 1 63 -3
75 -12 32 -22 36 -18 36 41 0 50 -2 56 -26 65 -14 6 -36 10 -49 10 -13 0 -26
4 -29 8 -2 4 4 64 14 132 34 229 70 505 70 533 0 51 -27 29 -53 -45z m49 -659
c8 -14 -10 -11 -32 6 -18 13 -18 14 4 8 12 -3 25 -9 28 -14z"/>
<path d="M2901 1978 c-6 -17 -9 -18 -14 -6 -4 13 -11 14 -40 5 -20 -7 -33 -16
-29 -22 3 -5 -1 -5 -9 2 -16 13 -59 7 -59 -8 0 -5 12 -9 28 -9 30 0 66 -40 43
-48 -8 -3 -6 -9 6 -19 16 -13 16 -14 1 -9 -13 4 -18 -2 -22 -27 -8 -52 -20
-268 -18 -327 2 -41 -1 -51 -9 -40 -7 11 -8 4 -4 -28 5 -29 3 -48 -6 -58 -8
-9 -9 -18 -3 -22 12 -9 15 -44 3 -36 -5 3 -9 -15 -9 -40 0 -25 -4 -47 -9 -50
-4 -3 -23 -1 -42 4 -21 6 -35 6 -37 1 -2 -6 -11 -2 -20 7 -15 15 -168 50 -177
40 -3 -3 16 -151 20 -156 1 -2 19 7 39 19 28 16 48 20 93 17 56 -3 58 -2 56
22 -1 16 0 18 4 7 4 -16 11 -18 56 -12 29 4 70 14 92 22 22 8 47 15 55 17 82
15 99 20 94 28 -4 6 2 8 14 4 25 -8 74 3 66 15 -3 5 2 6 11 3 27 -11 60 5 73
35 8 17 10 36 6 42 -4 7 -3 9 4 5 7 -4 7 3 -1 24 -8 21 -14 26 -20 17 -5 -7
-6 -1 -2 16 4 19 2 26 -5 22 -5 -3 -10 2 -10 11 0 15 -19 81 -27 93 -1 2 -9
-4 -18 -12 -17 -18 -20 -53 -5 -62 6 -3 10 -11 10 -18 0 -6 -7 -2 -15 9 -21
27 -18 54 7 81 12 13 16 23 10 23 -7 0 -12 10 -12 23 -1 33 -105 289 -114 280
-5 -5 -5 2 -2 15 5 13 3 22 -3 22 -6 0 -11 9 -11 19 0 27 -11 52 -20 46 -5 -3
-6 4 -3 15 7 27 -6 26 -16 -2z m19 -49 c0 -6 -4 -7 -10 -4 -5 3 -10 11 -10 16
0 6 5 7 10 4 6 -3 10 -11 10 -16z m-30 -34 c0 -8 -6 -18 -14 -22 -7 -4 -16
-15 -19 -23 -3 -8 -5 3 -5 25 0 22 2 32 5 23 2 -10 9 -18 15 -18 6 0 8 9 5 20
-3 11 -1 18 4 14 5 -3 9 -11 9 -19z m40 -6 c0 -6 -4 -7 -10 -4 -5 3 -10 11
-10 16 0 6 5 7 10 4 6 -3 10 -11 10 -16z m63 -172 c-3 -21 -10 -37 -14 -37 -5
0 -9 2 -9 4 0 2 -3 13 -6 23 -5 15 -4 16 6 3 9 -12 11 -9 7 14 -3 17 -2 36 1
44 10 27 22 -12 15 -51z m31 -36 c-6 -6 -24 19 -24 34 1 6 7 1 15 -9 8 -11 12
-22 9 -25z m63 -193 c-3 -8 -6 -5 -6 6 -1 11 2 17 5 13 3 -3 4 -12 1 -19z
m-290 -150 c-3 -8 -6 -5 -6 6 -1 11 2 17 5 13 3 -3 4 -12 1 -19z m94 -65 c-10
-4 -10 -7 -1 -13 9 -5 9 -9 1 -14 -6 -4 -11 -2 -11 3 0 6 -8 11 -17 12 -15 0
-15 2 2 9 11 5 25 9 30 9 6 -1 4 -3 -4 -6z m74 -2 c8 -14 -9 -21 -35 -14 -22
6 -23 7 -4 14 26 10 32 10 39 0z m-179 -48 c-10 -10 -19 5 -10 18 6 11 8 11
12 0 2 -7 1 -15 -2 -18z m-69 1 c-3 -3 -12 -4 -19 -1 -8 3 -5 6 6 6 11 1 17
-2 13 -5z m18 -24 c-3 -5 -10 -10 -16 -10 -5 0 -9 5 -9 10 0 6 7 10 16 10 8 0
12 -4 9 -10z"/>
<path d="M2051 1954 c0 -11 3 -14 6 -6 3 7 2 16 -1 19 -3 4 -6 -2 -5 -13z"/>
<path d="M2455 1960 c-3 -5 -1 -10 4 -10 6 0 11 5 11 10 0 6 -2 10 -4 10 -3 0
-8 -4 -11 -10z"/>
<path d="M2711 1904 c0 -11 3 -14 6 -6 3 7 2 16 -1 19 -3 4 -6 -2 -5 -13z"/>
<path d="M2062 1870 c0 -14 4 -38 8 -55 7 -27 8 -27 8 -5 0 14 -4 39 -8 55 -7
27 -8 27 -8 5z"/>
<path d="M4907 1852 c-18 -19 -22 -49 -11 -77 5 -13 8 -14 15 -3 7 10 9 9 9
-4 0 -10 5 -18 11 -18 7 0 9 8 4 23 -12 37 -11 80 3 83 7 1 8 0 2 -3 -13 -6
-13 -33 0 -33 6 0 10 -11 10 -25 0 -14 4 -25 9 -25 5 0 7 -10 4 -22 -5 -23 -5
-23 11 -3 16 19 16 19 7 -7 -7 -19 -6 -39 4 -70 12 -35 14 -37 12 -13 -2 18 4
37 15 48 15 14 18 14 18 2 0 -8 5 -15 10 -15 14 0 12 16 -3 28 -10 9 -19 7
-35 -4 -13 -9 -22 -11 -22 -4 0 6 7 13 15 16 10 4 13 16 11 37 -12 91 -59 133
-99 89z m77 -45 c4 -19 3 -26 -4 -22 -5 3 -10 18 -10 32 0 32 5 28 14 -10z"/>
<path d="M3790 1780 c-11 -7 -5 -8 20 -4 43 8 51 14 19 14 -13 0 -31 -5 -39
-10z"/>
<path d="M3910 1766 c0 -2 8 -10 18 -17 15 -13 16 -12 3 4 -13 16 -21 21 -21
13z"/>
<path d="M2082 1740 c0 -14 2 -19 5 -12 2 6 2 18 0 25 -3 6 -5 1 -5 -13z"/>
<path d="M3680 1750 c-11 -8 -7 -9 15 -4 37 8 45 14 19 14 -10 0 -26 -5 -34
-10z"/>
<path d="M3810 1735 c0 -8 2 -15 4 -15 2 0 6 7 10 15 3 8 1 15 -4 15 -6 0 -10
-7 -10 -15z"/>
<path d="M1442 1713 c-30 -30 -23 -66 19 -105 l29 -27 213 -1 c191 0 215 1
233 17 25 22 36 50 24 58 -6 4 -10 15 -10 26 0 11 -13 27 -32 39 -28 17 -51
19 -242 18 -208 -1 -210 -2 -234 -25z m188 0 c0 -13 -2 -15 -8 -5 -5 7 -17 10
-28 6 -16 -5 -16 -4 -4 5 22 16 40 13 40 -6z m17 -5 c-3 -8 -6 -5 -6 6 -1 11
2 17 5 13 3 -3 4 -12 1 -19z m43 11 c12 -9 12 -10 -3 -5 -12 4 -17 2 -15 -6 4
-12 88 -18 88 -6 0 5 -12 8 -27 8 -36 0 -26 6 22 13 22 4 32 3 23 -1 -13 -5
-15 -11 -7 -22 9 -12 12 -13 16 -1 5 11 7 11 14 0 6 -10 11 -11 17 -3 4 7 15
8 29 3 19 -7 20 -12 12 -46 -5 -21 -9 -42 -9 -47 0 -6 -6 -1 -14 9 -14 19 -15
19 -35 1 -12 -11 -21 -14 -21 -8 0 6 6 12 13 15 6 2 0 4 -15 4 -17 0 -29 -6
-31 -16 -3 -9 -5 -4 -6 12 0 15 -5 27 -10 27 -12 0 -32 -26 -25 -33 3 -3 -4
-8 -16 -12 -12 -4 -24 -4 -27 -1 -4 3 1 6 9 6 18 0 32 27 18 35 -5 3 -13 -3
-19 -12 -8 -13 -10 -14 -11 -4 0 11 -4 10 -16 -5 -8 -10 -13 -13 -9 -6 3 6 2
12 -4 12 -5 0 -12 -8 -14 -17 -3 -13 -5 -10 -6 7 l-1 25 -20 -25 c-16 -21 -21
-23 -32 -11 -11 12 -10 13 5 8 9 -4 17 -3 17 2 0 11 -40 22 -53 14 -5 -3 -3
-9 4 -14 8 -5 9 -9 4 -9 -35 0 -58 79 -25 87 11 3 12 2 3 -4 -13 -9 -6 -53 8
-53 9 0 13 16 10 34 -3 17 20 23 71 21 42 -2 51 1 55 16 6 22 12 23 33 8z
m215 -12 l30 -16 -28 -1 c-16 0 -26 4 -22 10 3 6 -5 10 -19 10 -14 0 -27 4
-30 9 -9 14 35 6 69 -12z m-418 7 c-3 -3 -12 -4 -19 -1 -8 3 -5 6 6 6 11 1 17
-2 13 -5z m-10 -40 c-3 -3 -12 -4 -19 -1 -8 3 -5 6 6 6 11 1 17 -2 13 -5z
m420 -14 c-3 -12 1 -24 11 -30 16 -9 16 -9 1 -10 -19 0 -31 23 -23 45 9 22 17
18 11 -5z m40 -26 c-4 -15 -5 -14 -6 4 -1 15 -5 21 -13 16 -7 -5 -8 -3 -3 5
10 18 28 -2 22 -25z m-57 -24 c0 -5 -4 -10 -10 -10 -5 0 -10 5 -10 10 0 6 5
10 10 10 6 0 10 -4 10 -10z"/>
<path d="M4891 1697 c-16 -55 -17 -110 -3 -115 7 -2 12 -9 12 -16 0 -7 11 -23
25 -36 21 -20 25 -32 23 -65 -2 -24 3 -47 12 -57 20 -24 30 -22 30 5 0 13 4
27 10 33 5 5 7 26 4 45 -5 31 -10 36 -30 33 -13 -1 -21 2 -18 7 3 6 0 17 -7
25 -10 12 -14 12 -20 2 -6 -9 -9 -7 -9 9 0 12 -6 24 -12 26 -8 3 -6 6 5 6 10
1 29 -6 42 -15 23 -15 24 -15 21 8 -9 74 -20 105 -46 125 l-28 22 -11 -42z
m39 -2 c11 -13 10 -14 -4 -9 -9 3 -16 10 -16 15 0 13 6 11 20 -6z m57 -217
c-3 -8 -6 -5 -6 6 -1 11 2 17 5 13 3 -3 4 -12 1 -19z"/>
<path d="M3681 1717 c2 -1 12 -9 22 -16 14 -12 17 -11 17 3 0 10 -8 16 -22 16
-12 0 -19 -1 -17 -3z"/>
<path d="M3736 1698 c-10 -37 -7 -48 12 -48 13 0 14 2 4 9 -9 5 -11 17 -6 34
3 15 4 27 1 27 -2 0 -7 -10 -11 -22z"/>
<path d="M5038 1683 c-10 -2 -20 -18 -24 -39 -3 -19 -11 -34 -18 -34 -6 0 -5
-4 4 -9 8 -6 15 -28 16 -53 3 -62 3 -64 13 -48 6 8 8 17 5 21 -2 4 5 24 16 45
15 26 18 40 11 47 -15 15 -14 44 1 53 8 5 9 2 5 -11 -4 -9 -3 -23 1 -29 5 -6
12 -27 16 -46 3 -21 3 -30 -3 -22 -9 15 -21 -18 -26 -73 -2 -16 -8 -31 -14
-33 -6 -2 -11 -10 -11 -19 0 -21 23 -11 37 18 14 26 16 18 7 -18 -4 -13 -13
-23 -20 -23 -10 0 -14 -13 -13 -42 0 -24 3 -37 6 -30 6 16 23 6 23 -14 0 -8
-4 -12 -10 -9 -6 3 -9 -4 -8 -19 3 -33 10 -27 33 33 22 57 33 66 55 43 13 -14
12 -15 -1 -10 -13 5 -15 0 -12 -20 3 -19 2 -23 -5 -14 -7 11 -10 11 -15 -2 -4
-9 -4 -24 -1 -33 4 -14 3 -15 -4 -5 -7 11 -10 10 -16 -3 -3 -9 -6 -26 -6 -36
0 -11 -4 -17 -10 -14 -5 3 -10 -3 -10 -15 0 -13 4 -18 11 -15 6 4 5 -2 -3 -14
-17 -28 -25 -26 -26 7 -5 103 -5 101 -24 91 -10 -5 -18 -20 -18 -32 0 -17 -2
-19 -10 -7 -6 10 -4 20 8 33 12 14 14 22 5 35 -6 9 -16 16 -22 15 -6 -2 -8 4
-5 11 3 9 -3 17 -16 21 -15 5 -20 13 -17 26 6 23 -8 26 -17 3 -10 -27 -7 -53
12 -89 12 -20 23 -30 28 -25 6 6 9 -4 9 -23 0 -25 4 -31 18 -29 10 2 17 -3 17
-13 0 -9 7 -27 16 -41 12 -17 14 -28 7 -35 -11 -11 -12 -11 -39 39 l-16 27 5
-33 c3 -24 0 -31 -9 -28 -8 3 -12 -2 -11 -14 1 -17 12 -18 134 -19 108 -1 133
1 133 13 0 19 25 38 74 56 42 16 42 16 66 107 10 39 14 43 67 60 45 14 62 26
79 53 22 35 37 52 93 103 34 31 40 61 14 76 -20 11 -51 1 -92 -30 -25 -18 -38
-21 -81 -15 -56 7 -61 4 -137 -91 -27 -34 -40 -42 -89 -51 -32 -7 -61 -12 -65
-12 -4 0 -21 20 -37 44 -29 43 -32 61 -23 139 1 5 5 6 10 3 12 -8 11 44 -1 67
-13 24 -41 57 -48 56 -3 -1 -13 -3 -22 -6z m12 -84 c0 -6 -4 -7 -10 -4 -5 3
-10 11 -10 16 0 6 5 7 10 4 6 -3 10 -11 10 -16z m517 -79 c-14 -11 -30 -20
-36 -20 -7 0 -23 -8 -37 -17 -25 -16 -26 -16 -23 2 3 11 14 19 32 21 16 1 39
10 50 18 32 22 44 19 14 -4z m-477 -6 c0 -8 -5 -12 -10 -9 -6 4 -8 11 -5 16 9
14 15 11 15 -7z m270 -81 c-11 -17 -11 -17 -6 0 3 10 6 24 7 30 0 9 2 9 5 0 3
-7 0 -20 -6 -30z m80 16 c-105 -83 -143 -109 -117 -82 15 16 24 33 20 38 -5 4
-3 5 4 1 7 -4 33 9 60 28 51 38 75 49 33 15z m-352 -59 c-7 -10 -14 -17 -17
-15 -4 4 18 35 25 35 2 0 -1 -9 -8 -20z m-141 -52 c-3 -8 -6 -5 -6 6 -1 11 2
17 5 13 3 -3 4 -12 1 -19z m253 -75 c-11 -17 -11 -17 -6 0 3 10 7 33 8 50 l1
32 4 -32 c2 -18 -1 -41 -7 -50z m86 62 c-3 -10 1 -15 12 -16 9 0 4 -5 -13 -11
-16 -6 -37 -16 -45 -22 -8 -6 -1 6 15 26 33 40 40 45 31 23z m-176 -84 c0 -6
-4 -13 -10 -16 -5 -3 -10 1 -10 9 0 9 5 16 10 16 6 0 10 -4 10 -9z m64 -53
c-41 -58 -62 -83 -49 -58 14 26 76 110 82 110 2 0 -12 -24 -33 -52z m86 2
c-34 -11 -60 -11 -35 0 11 5 29 8 40 8 16 0 15 -2 -5 -8z m-60 -14 c0 -2 -7
-7 -16 -10 -8 -3 -12 -2 -9 4 6 10 25 14 25 6z m-93 -38 c-3 -7 -5 -2 -5 12 0
14 2 19 5 13 2 -7 2 -19 0 -25z"/>
<path d="M2102 1605 c0 -16 2 -22 5 -12 2 9 2 23 0 30 -3 6 -5 -1 -5 -18z"/>
<path d="M3770 1620 c-21 -7 -21 -8 -5 -9 11 0 27 4 35 9 18 11 5 11 -30 0z"/>
<path d="M3874 1568 l-29 -33 33 29 c30 28 37 36 29 36 -2 0 -16 -15 -33 -32z"/>
<path d="M3788 1583 c7 -3 16 -2 19 1 4 3 -2 6 -13 5 -11 0 -14 -3 -6 -6z"/>
<path d="M2112 1535 c0 -16 2 -22 5 -12 2 9 2 23 0 30 -3 6 -5 -1 -5 -18z"/>
<path d="M4996 1398 c-4 -22 -2 -37 9 -47 10 -10 15 -11 15 -3 0 7 -4 12 -9
12 -6 0 -6 12 0 32 11 40 11 38 0 38 -5 0 -11 -14 -15 -32z"/>
<path d="M2142 1340 c0 -14 2 -19 5 -12 2 6 2 18 0 25 -3 6 -5 1 -5 -13z"/>
<path d="M3161 1314 c-6 -15 -9 -29 -7 -32 3 -2 10 8 16 23 14 36 7 43 -9 9z"/>
<path d="M2151 1273 c-1 -35 -36 -52 -100 -48 l-56 4 55 -9 c30 -5 62 -7 71
-4 20 6 43 48 36 66 -3 7 -6 4 -6 -9z"/>
<path d="M4260 1121 c14 -27 13 -61 -2 -61 -9 0 -9 -3 -1 -11 6 -6 21 -9 34
-7 50 7 29 98 -22 98 -16 0 -18 -3 -9 -19z"/>
<path d="M3955 1119 c-4 -6 -5 -12 -2 -15 2 -3 7 2 10 11 7 17 1 20 -8 4z"/>
<path d="M3874 889 c-10 -18 162 -28 191 -11 16 8 -2 11 -84 14 -56 2 -105 0
-107 -3z"/>
<path d="M3880 850 c8 -5 20 -10 25 -10 6 0 3 5 -5 10 -8 5 -19 10 -25 10 -5
0 -3 -5 5 -10z"/>
<path d="M3640 840 c8 -5 20 -10 25 -10 6 0 3 5 -5 10 -8 5 -19 10 -25 10 -5
0 -3 -5 5 -10z"/>
<path d="M3496 631 c-3 -5 1 -26 10 -47 11 -26 14 -54 11 -85 -6 -52 -1 -65
20 -48 21 18 17 118 -7 157 -21 34 -26 37 -34 23z"/>
<path d="M4105 630 c-3 -6 1 -7 9 -4 18 7 21 14 7 14 -6 0 -13 -4 -16 -10z"/>
<path d="M4173 598 c-20 -40 -23 -129 -4 -152 21 -25 26 -11 23 54 -3 42 1 65
13 84 16 24 14 46 -5 46 -5 0 -17 -15 -27 -32z"/>
</g>
</svg>
