<svg width="40" height="41" viewBox="0 0 40 41" fill="none" xmlns="http://www.w3.org/2000/svg">
<path d="M2.94047e-06 20.995C2.45826e-06 9.96342 8.96842 0.995 20 0.995C31.0316 0.994999 40 9.96342 40 20.995C40 32.0266 31.0316 40.995 20 40.995C8.96842 40.995 3.42268e-06 32.0266 2.94047e-06 20.995ZM24.0421 29.7108C24.337 29.4159 24.4633 29.0793 24.4633 28.7002C24.4633 28.3213 24.337 27.9424 24.0421 27.6896L17.3895 20.9949L24.0421 14.3423C24.5896 13.7948 24.5896 12.8685 24.0421 12.3213C23.4946 11.7739 22.5683 11.7739 22.0211 12.3213L14.3159 19.9845C13.7684 20.5319 13.7684 21.4583 14.3159 22.0054L22.0211 29.7107C22.5686 30.2579 23.495 30.2579 24.0424 29.7107L24.0421 29.7108Z" fill="#333333"/>
</svg>
