<?xml version="1.0" standalone="no"?>
<!DOCTYPE svg PUBLIC "-//W3C//DTD SVG 20010904//EN"
 "http://www.w3.org/TR/2001/REC-SVG-20010904/DTD/svg10.dtd">
<svg version="1.0" xmlns="http://www.w3.org/2000/svg"
 width="512.000000pt" height="512.000000pt" viewBox="0 0 512.000000 512.000000"
 preserveAspectRatio="xMidYMid meet">

<g transform="translate(0.000000,512.000000) scale(0.100000,-0.100000)"
fill="#000000" stroke="none">
<path d="M3093 5106 c-133 -33 -274 -146 -341 -273 -96 -184 -95 -404 4 -592
l44 -84 -60 -93 c-72 -113 -76 -142 -23 -158 28 -9 45 8 103 102 42 68 61 84
75 62 11 -18 125 -79 177 -95 76 -23 198 -21 280 5 175 54 317 217 364 416 23
99 15 256 -19 346 -100 273 -352 425 -604 364z m229 -105 c190 -65 308 -244
309 -466 0 -242 -150 -436 -368 -477 -199 -37 -408 116 -468 343 -20 73 -19
212 1 280 34 113 111 222 198 276 98 63 225 79 328 44z"/>
<path d="M3097 4906 c-74 -27 -84 -58 -41 -134 0 -1 21 7 45 18 54 24 97 25
128 4 36 -25 26 -96 -22 -158 -52 -68 -78 -127 -84 -192 -7 -64 7 -84 58 -84
38 0 59 25 59 68 0 43 16 77 70 147 52 68 70 108 76 163 8 65 -26 127 -86 159
-50 27 -141 31 -203 9z"/>
<path d="M3125 4297 c-38 -32 -38 -92 0 -124 83 -72 184 51 103 127 -29 26
-71 25 -103 -3z"/>
<path d="M1913 4465 c-129 -36 -240 -117 -313 -228 -111 -169 -111 -394 -2
-563 101 -154 261 -244 437 -244 l70 0 49 161 c55 179 80 223 151 265 52 30
144 42 212 26 38 -9 42 -8 47 12 19 71 -7 206 -60 306 -60 114 -175 212 -299
255 -69 24 -225 29 -292 10z"/>
<path d="M2393 3819 c-51 -10 -97 -42 -120 -85 -12 -21 -46 -121 -77 -221 -64
-212 -76 -237 -117 -258 -17 -9 -148 -39 -292 -67 -144 -27 -277 -57 -296 -66
-19 -10 -49 -34 -65 -55 l-31 -39 0 -149 c0 -136 2 -150 21 -169 43 -43 95
-38 399 40 487 124 500 128 548 170 24 21 51 56 60 77 9 21 57 186 108 367 82
297 90 333 80 366 -17 58 -50 81 -123 89 -35 4 -78 4 -95 0z"/>
<path d="M2536 3147 c-22 -78 -48 -159 -58 -179 -26 -53 -74 -105 -122 -132
-47 -27 -772 -216 -829 -216 l-37 0 0 -1217 c0 -1164 1 -1220 19 -1259 43 -95
143 -151 251 -141 92 8 161 53 203 132 22 40 22 45 25 713 l3 672 49 0 50 0 0
-634 c0 -380 4 -654 10 -686 34 -180 253 -260 402 -147 23 18 53 54 67 82 l26
49 5 756 5 755 35 6 c106 19 127 44 311 369 89 157 172 308 185 335 31 65 31
126 0 190 -42 86 -438 627 -482 657 -77 53 -75 55 -118 -105z m158 -532 c100
-144 100 -143 -5 -316 -45 -74 -83 -136 -85 -138 -2 -2 -4 128 -4 289 0 174 4
290 9 285 5 -6 43 -59 85 -120z"/>
</g>
</svg>
