<svg width="40" height="41" viewBox="0 0 40 41" fill="none" xmlns="http://www.w3.org/2000/svg">
<path d="M40 20.995C40 9.96342 31.0316 0.994998 20 0.994998C8.96842 0.994999 -1.35643e-06 9.96342 -8.74228e-07 20.995C-3.92022e-07 32.0266 8.96842 40.995 20 40.995C31.0316 40.995 40 32.0266 40 20.995ZM15.9579 29.7108C15.663 29.4159 15.5367 29.0793 15.5367 28.7002C15.5367 28.3213 15.663 27.9424 15.9579 27.6896L22.6105 20.9949L15.9579 14.3423C15.4104 13.7948 15.4104 12.8685 15.9579 12.3213C16.5054 11.7739 17.4317 11.7739 17.9789 12.3213L25.6841 19.9845C26.2316 20.5319 26.2316 21.4583 25.6841 22.0054L17.9789 29.7107C17.4314 30.2579 16.505 30.2579 15.9576 29.7107L15.9579 29.7108Z" fill="#333333"/>
</svg>
