<svg width="970" height="970" viewBox="0 0 970 970" fill="none" xmlns="http://www.w3.org/2000/svg">
<circle cx="485" cy="485" r="397.5" stroke="#01A4EF"/>
<circle cx="485" cy="485" r="346.644" stroke="#FFB703" stroke-dasharray="10 10"/>
<circle cx="485" cy="485" r="293.578" stroke="#7FBA00"/>
<circle cx="485" cy="485" r="229.456" stroke="#F14F20" stroke-dasharray="10 10"/>
<circle cx="485" cy="87" r="10" fill="#F14F20"/>
<circle cx="485" cy="883" r="10" fill="#F14F20"/>
<circle cx="87.0002" cy="514" r="10" fill="#F14F20"/>
<circle cx="883" cy="514" r="10" fill="#F14F20"/>
<circle cx="314.775" cy="182.419" r="8.72305" transform="rotate(-29.3612 314.775 182.419)" fill="#01A4EF"/>
<circle cx="655.226" cy="787.581" r="8.72305" transform="rotate(-29.3612 655.226 787.581)" fill="#01A4EF"/>
<circle cx="194.822" cy="677.273" r="8.72305" transform="rotate(-29.3612 194.822 677.273)" fill="#01A4EF"/>
<circle cx="799.985" cy="336.822" r="8.72305" transform="rotate(-29.3612 799.985 336.822)" fill="#01A4EF"/>
<circle cx="294.493" cy="260.75" r="7.33473" transform="rotate(-46.1461 294.493 260.75)" fill="#FFB703"/>
<circle cx="695.508" cy="687.25" r="7.33473" transform="rotate(-46.1461 695.508 687.25)" fill="#FFB703"/>
<circle cx="309.088" cy="720.245" r="7.33473" transform="rotate(-46.1461 309.088 720.245)" fill="#FFB703"/>
<circle cx="702.589" cy="289.229" r="7.33473" transform="rotate(-46.1461 702.589 289.229)" fill="#FFB703"/>
<circle cx="328.033" cy="317.559" r="5.7666" transform="rotate(-43.151 328.033 317.559)" fill="#7FBA00"/>
<circle cx="658.968" cy="632.44" r="5.7666" transform="rotate(-43.151 658.968 632.44)" fill="#7FBA00"/>
<circle cx="298.997" cy="619.168" r="5.7666" transform="rotate(-43.151 298.997 619.168)" fill="#7FBA00"/>
<circle cx="676.878" cy="360.233" r="5.7666" transform="rotate(-43.151 676.878 360.233)" fill="#7FBA00"/>
</svg>
