<?xml version="1.0" standalone="no"?>
<!DOCTYPE svg PUBLIC "-//W3C//DTD SVG 20010904//EN"
 "http://www.w3.org/TR/2001/REC-SVG-20010904/DTD/svg10.dtd">
<svg version="1.0" xmlns="http://www.w3.org/2000/svg"
 width="273.000000pt" height="185.000000pt" viewBox="0 0 273.000000 185.000000"
 preserveAspectRatio="xMidYMid meet">
<metadata>
Created by potrace 1.16, written by Peter Selinger 2001-2019
</metadata>
<g transform="translate(0.000000,185.000000) scale(0.100000,-0.100000)"
fill="#000000" stroke="none">
<path d="M0 1710 l0 -139 88 -4 87 -3 -87 -2 -88 -2 0 -440 0 -440 833 -2
c457 -1 716 -5 574 -8 l-258 -5 330 -334 c181 -183 335 -331 342 -329 9 3 12
66 10 269 l-2 264 -67 67 c-36 38 -72 68 -80 68 -7 0 -11 4 -8 8 3 5 -92 105
-210 223 -118 118 -220 222 -226 233 -9 16 29 58 293 322 167 167 311 304 319
304 24 0 610 -591 610 -615 0 -14 -105 -125 -304 -324 l-305 -303 -1 -259 -1
-259 441 0 440 0 0 333 0 334 -307 2 c-169 1 -309 4 -312 6 -2 3 136 5 307 5
l312 0 0 409 c0 318 -3 410 -12 414 -10 4 -10 6 0 6 9 1 12 42 12 171 l0 170
-869 0 -868 0 -12 -23 -12 -22 5 23 4 22 -489 0 -489 0 0 -140z m731 -210 c28
-15 46 -34 61 -65 12 -24 29 -46 37 -48 10 -3 8 -5 -6 -6 -17 -1 -27 9 -42 44
-23 53 -70 85 -124 85 -50 0 -106 -27 -120 -57 -9 -21 -15 -23 -48 -18 -66 11
-129 -29 -129 -84 0 -15 -10 -23 -39 -31 -51 -13 -81 -51 -81 -101 0 -53 17
-85 55 -104 48 -22 497 -22 553 0 75 31 106 138 60 210 -13 19 -31 38 -41 41
-10 3 -16 8 -13 11 10 10 55 -27 72 -59 26 -50 15 -140 -21 -178 -16 -17 -45
-35 -64 -40 -20 -5 -143 -10 -274 -10 -258 0 -290 5 -322 54 -47 71 -17 158
62 185 34 12 43 20 48 47 7 42 46 67 108 69 36 1 54 7 66 22 42 53 132 68 202
33z"/>
<path d="M1552 1447 c-160 -160 -292 -297 -292 -302 0 -16 574 -585 590 -585
17 0 590 569 590 585 0 10 -580 595 -590 595 -3 0 -137 -132 -298 -293z m586
-13 l284 -287 -286 -286 -286 -286 -287 287 -288 288 285 285 c157 157 287
285 289 285 2 0 132 -129 289 -286z"/>
<path d="M1830 1042 c0 -64 2 -70 23 -76 44 -12 76 -6 87 14 14 26 51 26 73
-1 10 -11 21 -18 24 -15 11 10 -48 146 -63 146 -8 0 -14 -4 -14 -9 0 -5 -11
-33 -24 -63 -22 -50 -27 -55 -50 -51 -32 6 -37 43 -6 43 11 0 20 5 20 10 0 6
-9 10 -20 10 -26 0 -26 28 0 32 35 5 27 23 -12 26 l-38 3 0 -69z"/>
<path d="M0 335 l0 -335 199 0 199 0 203 198 c112 108 267 259 344 334 l140
138 -542 0 -543 0 0 -335z"/>
<path d="M760 330 l-335 -329 343 -1 342 0 1 303 c1 322 1 338 -9 349 -4 4
-158 -141 -342 -322z"/>
<path d="M1128 648 c-4 -12 -4 -177 0 -520 l2 -128 321 0 321 0 -37 43 c-46
52 -596 617 -601 617 -1 0 -4 -6 -6 -12z"/>
</g>
</svg>
